<?xml version="1.0" encoding="UTF-8" standalone="no"?>
<!DOCTYPE svg PUBLIC "-//W3C//DTD SVG 1.1//EN" "http://www.w3.org/Graphics/SVG/1.1/DTD/svg11.dtd">
<svg xmlns="http://www.w3.org/2000/svg" version="1.1" viewBox="0.00 0.00 240.00 148.00">
<g stroke-width="2.00" fill="none" stroke-linecap="butt">
<path stroke="#f39c96" vector-effect="non-scaling-stroke" d="
  M 126.52 82.62
  A 0.36 0.36 0.0 0 1 127.15 82.44
  Q 130.56 86.31 134.15 89.85
  Q 153.31 108.81 172.30 127.77
  A 0.65 0.64 44.7 0 0 173.21 127.77
  Q 198.37 103.14 223.17 78.43
  Q 224.19 77.41 225.34 76.75
  A 0.42 0.42 0.0 0 0 225.35 76.03
  C 224.29 75.36 223.18 74.75 222.28 73.86
  Q 199.61 51.46 176.96 29.04
  Q 175.58 27.67 174.55 26.22
  A 0.66 0.66 0.0 0 0 173.54 26.13
  Q 152.18 47.71 130.26 69.07
  C 129.29 70.02 128.52 71.21 127.72 72.21
  Q 126.32 73.98 126.15 71.73
  Q 125.82 67.21 124.12 62.18
  C 110.45 21.78 56.93 13.52 33.58 50.16
  C 30.02 55.75 27.63 62.25 25.84 68.76
  C 23.41 77.61 25.22 84.13 28.23 92.94
  C 35.27 113.49 53.26 126.09 74.25 127.00
  C 101.27 128.18 121.95 108.54 126.52 82.62"
/>
<path stroke="#e13a2f" vector-effect="non-scaling-stroke" d="
  M 131.48 77.53
  Q 131.24 77.69 130.96 77.76
  A 0.09 0.09 0.0 0 0 130.92 77.91
  Q 131.07 78.06 131.18 78.17
  Q 131.47 78.44 131.16 78.68
  L 130.80 78.95
  Q 130.52 79.16 130.76 79.41
  Q 132.37 81.14 134.02 82.81
  C 134.99 83.79 135.01 85.00 136.10 86.09
  Q 139.49 89.46 143.10 92.58
  Q 144.32 93.64 147.15 96.66
  Q 149.14 98.78 151.59 100.42
  Q 152.59 101.08 153.11 102.13
  A 1.81 1.78 4.4 0 0 153.72 102.83
  Q 156.16 104.49 157.78 106.99
  Q 158.16 107.57 158.76 107.87
  Q 159.19 108.07 159.48 108.45
  Q 160.87 110.22 162.62 111.60
  Q 162.77 111.72 162.84 111.88
  Q 162.93 112.06 163.02 112.23
  Q 163.15 112.48 163.37 112.65
  Q 166.29 114.82 169.63 116.26
  Q 170.10 116.46 170.44 116.83
  L 173.94 120.51
  Q 174.17 120.76 174.49 120.66
  Q 175.37 120.40 175.87 119.49
  A 1.03 1.01 -2.9 0 1 176.20 119.13
  Q 178.62 117.42 181.61 114.61
  Q 192.08 104.82 198.43 98.07
  Q 201.46 94.85 204.74 91.87
  C 205.97 90.76 207.02 89.17 208.39 88.02
  Q 214.47 82.90 217.62 78.86
  Q 218.66 77.53 218.20 75.84
  Q 217.91 74.77 216.51 73.58
  Q 212.91 70.49 208.69 65.55
  C 206.94 63.49 204.21 62.24 202.33 59.95
  Q 201.48 58.91 200.25 58.28
  A 1.61 1.57 87.6 0 1 199.59 57.66
  Q 198.36 55.58 196.43 54.30
  C 195.10 53.42 194.51 52.32 193.40 51.34
  Q 191.51 49.65 191.08 49.18
  Q 189.31 47.21 187.56 45.20
  Q 185.54 42.89 183.12 40.99
  Q 182.52 40.52 181.54 39.36
  C 180.68 38.34 179.56 37.90 178.69 36.66
  C 177.78 35.37 175.60 34.44 174.37 33.49
  A 2.70 2.69 40.4 0 0 170.76 33.77
  C 168.97 35.66 166.53 37.41 164.84 39.56
  Q 163.22 41.62 162.62 42.12
  Q 160.68 43.76 158.64 45.26
  Q 158.57 45.31 156.15 47.52
  Q 154.65 48.89 152.03 50.04
  Q 150.33 50.78 149.90 53.29
  Q 149.82 53.80 149.40 54.11
  Q 148.69 54.64 148.52 55.50
  Q 148.40 56.05 148.01 56.46
  C 146.48 58.05 144.53 60.80 142.67 61.86
  Q 142.24 62.10 141.94 62.49
  C 140.22 64.72 137.49 66.18 135.90 69.41
  A 1.68 1.67 -2.9 0 1 135.29 70.08
  Q 131.30 72.44 130.99 77.14
  Q 130.98 77.23 131.06 77.27
  Q 131.23 77.37 131.43 77.38
  A 0.09 0.08 27.7 0 1 131.48 77.53"
/>
<path stroke="#f39c96" vector-effect="non-scaling-stroke" d="
  M 76.15 85.98
  Q 73.77 81.96 70.19 78.98
  A 0.51 0.51 0.0 0 1 70.19 78.19
  L 103.57 50.80
  Q 105.00 49.63 103.61 48.41
  C 83.71 31.04 54.31 34.42 41.14 57.95
  Q 30.97 76.12 40.86 95.48
  C 52.22 117.73 81.78 123.13 100.90 107.86
  C 115.23 96.42 120.17 75.90 111.64 59.39
  A 1.06 1.06 0.0 0 0 110.02 59.06
  L 77.16 86.16
  A 0.68 0.68 0.0 0 1 76.15 85.98"
/>
</g>
<path fill="#fefefe" d="
  M 0.00 0.00
  L 240.00 0.00
  L 240.00 148.00
  L 0.00 148.00
  L 0.00 0.00
  Z
  M 126.52 82.62
  A 0.36 0.36 0.0 0 1 127.15 82.44
  Q 130.56 86.31 134.15 89.85
  Q 153.31 108.81 172.30 127.77
  A 0.65 0.64 44.7 0 0 173.21 127.77
  Q 198.37 103.14 223.17 78.43
  Q 224.19 77.41 225.34 76.75
  A 0.42 0.42 0.0 0 0 225.35 76.03
  C 224.29 75.36 223.18 74.75 222.28 73.86
  Q 199.61 51.46 176.96 29.04
  Q 175.58 27.67 174.55 26.22
  A 0.66 0.66 0.0 0 0 173.54 26.13
  Q 152.18 47.71 130.26 69.07
  C 129.29 70.02 128.52 71.21 127.72 72.21
  Q 126.32 73.98 126.15 71.73
  Q 125.82 67.21 124.12 62.18
  C 110.45 21.78 56.93 13.52 33.58 50.16
  C 30.02 55.75 27.63 62.25 25.84 68.76
  C 23.41 77.61 25.22 84.13 28.23 92.94
  C 35.27 113.49 53.26 126.09 74.25 127.00
  C 101.27 128.18 121.95 108.54 126.52 82.62
  Z"
/>
<path fill="#e73a2e" d="
  M 126.52 82.62
  C 121.95 108.54 101.27 128.18 74.25 127.00
  C 53.26 126.09 35.27 113.49 28.23 92.94
  C 25.22 84.13 23.41 77.61 25.84 68.76
  C 27.63 62.25 30.02 55.75 33.58 50.16
  C 56.93 13.52 110.45 21.78 124.12 62.18
  Q 125.82 67.21 126.15 71.73
  Q 126.32 73.98 127.72 72.21
  C 128.52 71.21 129.29 70.02 130.26 69.07
  Q 152.18 47.71 173.54 26.13
  A 0.66 0.66 0.0 0 1 174.55 26.22
  Q 175.58 27.67 176.96 29.04
  Q 199.61 51.46 222.28 73.86
  C 223.18 74.75 224.29 75.36 225.35 76.03
  A 0.42 0.42 0.0 0 1 225.34 76.75
  Q 224.19 77.41 223.17 78.43
  Q 198.37 103.14 173.21 127.77
  A 0.65 0.64 44.7 0 1 172.30 127.77
  Q 153.31 108.81 134.15 89.85
  Q 130.56 86.31 127.15 82.44
  A 0.36 0.36 0.0 0 0 126.52 82.62
  Z
  M 131.48 77.53
  Q 131.24 77.69 130.96 77.76
  A 0.09 0.09 0.0 0 0 130.92 77.91
  Q 131.07 78.06 131.18 78.17
  Q 131.47 78.44 131.16 78.68
  L 130.80 78.95
  Q 130.52 79.16 130.76 79.41
  Q 132.37 81.14 134.02 82.81
  C 134.99 83.79 135.01 85.00 136.10 86.09
  Q 139.49 89.46 143.10 92.58
  Q 144.32 93.64 147.15 96.66
  Q 149.14 98.78 151.59 100.42
  Q 152.59 101.08 153.11 102.13
  A 1.81 1.78 4.4 0 0 153.72 102.83
  Q 156.16 104.49 157.78 106.99
  Q 158.16 107.57 158.76 107.87
  Q 159.19 108.07 159.48 108.45
  Q 160.87 110.22 162.62 111.60
  Q 162.77 111.72 162.84 111.88
  Q 162.93 112.06 163.02 112.23
  Q 163.15 112.48 163.37 112.65
  Q 166.29 114.82 169.63 116.26
  Q 170.10 116.46 170.44 116.83
  L 173.94 120.51
  Q 174.17 120.76 174.49 120.66
  Q 175.37 120.40 175.87 119.49
  A 1.03 1.01 -2.9 0 1 176.20 119.13
  Q 178.62 117.42 181.61 114.61
  Q 192.08 104.82 198.43 98.07
  Q 201.46 94.85 204.74 91.87
  C 205.97 90.76 207.02 89.17 208.39 88.02
  Q 214.47 82.90 217.62 78.86
  Q 218.66 77.53 218.20 75.84
  Q 217.91 74.77 216.51 73.58
  Q 212.91 70.49 208.69 65.55
  C 206.94 63.49 204.21 62.24 202.33 59.95
  Q 201.48 58.91 200.25 58.28
  A 1.61 1.57 87.6 0 1 199.59 57.66
  Q 198.36 55.58 196.43 54.30
  C 195.10 53.42 194.51 52.32 193.40 51.34
  Q 191.51 49.65 191.08 49.18
  Q 189.31 47.21 187.56 45.20
  Q 185.54 42.89 183.12 40.99
  Q 182.52 40.52 181.54 39.36
  C 180.68 38.34 179.56 37.90 178.69 36.66
  C 177.78 35.37 175.60 34.44 174.37 33.49
  A 2.70 2.69 40.4 0 0 170.76 33.77
  C 168.97 35.66 166.53 37.41 164.84 39.56
  Q 163.22 41.62 162.62 42.12
  Q 160.68 43.76 158.64 45.26
  Q 158.57 45.31 156.15 47.52
  Q 154.65 48.89 152.03 50.04
  Q 150.33 50.78 149.90 53.29
  Q 149.82 53.80 149.40 54.11
  Q 148.69 54.64 148.52 55.50
  Q 148.40 56.05 148.01 56.46
  C 146.48 58.05 144.53 60.80 142.67 61.86
  Q 142.24 62.10 141.94 62.49
  C 140.22 64.72 137.49 66.18 135.90 69.41
  A 1.68 1.67 -2.9 0 1 135.29 70.08
  Q 131.30 72.44 130.99 77.14
  Q 130.98 77.23 131.06 77.27
  Q 131.23 77.37 131.43 77.38
  A 0.09 0.08 27.7 0 1 131.48 77.53
  Z
  M 76.15 85.98
  Q 73.77 81.96 70.19 78.98
  A 0.51 0.51 0.0 0 1 70.19 78.19
  L 103.57 50.80
  Q 105.00 49.63 103.61 48.41
  C 83.71 31.04 54.31 34.42 41.14 57.95
  Q 30.97 76.12 40.86 95.48
  C 52.22 117.73 81.78 123.13 100.90 107.86
  C 115.23 96.42 120.17 75.90 111.64 59.39
  A 1.06 1.06 0.0 0 0 110.02 59.06
  L 77.16 86.16
  A 0.68 0.68 0.0 0 1 76.15 85.98
  Z"
/>
<path fill="#da3930" d="
  M 131.43 77.38
  Q 131.23 77.37 131.06 77.27
  Q 130.98 77.23 130.99 77.14
  Q 131.30 72.44 135.29 70.08
  A 1.68 1.67 -2.9 0 0 135.90 69.41
  C 137.49 66.18 140.22 64.72 141.94 62.49
  Q 142.24 62.10 142.67 61.86
  C 144.53 60.80 146.48 58.05 148.01 56.46
  Q 148.40 56.05 148.52 55.50
  Q 148.69 54.64 149.40 54.11
  Q 149.82 53.80 149.90 53.29
  Q 150.33 50.78 152.03 50.04
  Q 154.65 48.89 156.15 47.52
  Q 158.57 45.31 158.64 45.26
  Q 160.68 43.76 162.62 42.12
  Q 163.22 41.62 164.84 39.56
  C 166.53 37.41 168.97 35.66 170.76 33.77
  A 2.70 2.69 40.4 0 1 174.37 33.49
  C 175.60 34.44 177.78 35.37 178.69 36.66
  C 179.56 37.90 180.68 38.34 181.54 39.36
  Q 182.52 40.52 183.12 40.99
  Q 185.54 42.89 187.56 45.20
  Q 189.31 47.21 191.08 49.18
  Q 191.51 49.65 193.40 51.34
  C 194.51 52.32 195.10 53.42 196.43 54.30
  Q 198.36 55.58 199.59 57.66
  A 1.61 1.57 87.6 0 0 200.25 58.28
  Q 201.48 58.91 202.33 59.95
  C 204.21 62.24 206.94 63.49 208.69 65.55
  Q 212.91 70.49 216.51 73.58
  Q 217.91 74.77 218.20 75.84
  Q 218.66 77.53 217.62 78.86
  Q 214.47 82.90 208.39 88.02
  C 207.02 89.17 205.97 90.76 204.74 91.87
  Q 201.46 94.85 198.43 98.07
  Q 192.08 104.82 181.61 114.61
  Q 178.62 117.42 176.20 119.13
  A 1.03 1.01 -2.9 0 0 175.87 119.49
  Q 175.37 120.40 174.49 120.66
  Q 174.17 120.76 173.94 120.51
  L 170.44 116.83
  Q 170.10 116.46 169.63 116.26
  Q 166.29 114.82 163.37 112.65
  Q 163.15 112.48 163.02 112.23
  Q 162.93 112.06 162.84 111.88
  Q 162.77 111.72 162.62 111.60
  Q 160.87 110.22 159.48 108.45
  Q 159.19 108.07 158.76 107.87
  Q 158.16 107.57 157.78 106.99
  Q 156.16 104.49 153.72 102.83
  A 1.81 1.78 4.4 0 1 153.11 102.13
  Q 152.59 101.08 151.59 100.42
  Q 149.14 98.78 147.15 96.66
  Q 144.32 93.64 143.10 92.58
  Q 139.49 89.46 136.10 86.09
  C 135.01 85.00 134.99 83.79 134.02 82.81
  Q 132.37 81.14 130.76 79.41
  Q 130.52 79.16 130.80 78.95
  L 131.16 78.68
  Q 131.47 78.44 131.18 78.17
  Q 131.07 78.06 130.92 77.91
  A 0.09 0.09 0.0 0 1 130.96 77.76
  Q 131.24 77.69 131.48 77.53
  A 0.09 0.08 27.7 0 0 131.43 77.38
  Z"
/>
<path fill="#fefefe" d="
  M 76.15 85.98
  A 0.68 0.68 0.0 0 0 77.16 86.16
  L 110.02 59.06
  A 1.06 1.06 0.0 0 1 111.64 59.39
  C 120.17 75.90 115.23 96.42 100.90 107.86
  C 81.78 123.13 52.22 117.73 40.86 95.48
  Q 30.97 76.12 41.14 57.95
  C 54.31 34.42 83.71 31.04 103.61 48.41
  Q 105.00 49.63 103.57 50.80
  L 70.19 78.19
  A 0.51 0.51 0.0 0 0 70.19 78.98
  Q 73.77 81.96 76.15 85.98
  Z"
/>
</svg>
